<?xml version="1.0" encoding="utf-8"?>
<!-- Generator: Adobe Illustrator 25.0.1, SVG Export Plug-In . SVG Version: 6.00 Build 0)  -->
<svg version="1.1" id="Layer_1" xmlns="http://www.w3.org/2000/svg" xmlns:xlink="http://www.w3.org/1999/xlink" x="0px" y="0px"
	 viewBox="0 0 680.6 670.1" style="enable-background:new 0 0 680.6 670.1;" xml:space="preserve">
<path d="M36,35.5c0,198.6,0,396.7,0,595.3c198.9,0,397.2,0,596.6,0c0-198.6,0-396.8,0-595.3C433.5,35.5,234.9,35.5,36,35.5z
	 M145.3,215.6c0.2-26.3,0.5-52.5,0.7-78.8c0-2.7,0-5.4,0-8.4c108.2,0,215.4,0,324.3,0c-55.9,108.6-111.3,216-167,324.3
	c-14.4-7.4-28.1-14.4-41.9-21.4c-36.8-18.8-73.5-37.8-110.4-56.4c-5.2-2.6-7.1-5.5-7-11.4C144.6,314.2,144.9,264.9,145.3,215.6z
	 M411.8,619.9c-88.8,0-177.5,0-267.2,0c0-45.1,0-89.3,0-134.6c89.7,44.8,178.6,89.2,267.5,133.5
	C411.9,619.2,411.8,619.5,411.8,619.9z M580.7,594.5c-47.7-24.3-94.7-48.4-142.1-72.6c12.9-25.6,25.5-50.6,38.1-75.6
	c4.8-9.6,9.5-19.3,14.7-28.7c1.2-2.1,4.2-4.4,6.5-4.4c27.3-0.3,54.6-0.2,82.8-0.2C580.7,473.6,580.7,533.3,580.7,594.5z
	 M621.5,619.2c-8.7-4.5-16.9-8.3-24.5-12.9c-1.8-1.1-2.6-5.1-2.6-7.7c-0.2-38.3-0.1-76.6-0.1-114.9c0-24.8,0-49.6,0-74.4
	c0-2.7,0-5.4,0-8.8c-3.6,0-6.3,0-9,0c-30.1,0-60.2,0.3-90.3-0.2c-7.8-0.1-11.3,2.6-14.6,9.3c-17.1,34.8-34.8,69.3-52.3,103.9
	c-0.7,1.3-1.5,2.6-2.5,4.4c-9.3-4.8-18.4-9.5-28-14.5c74.4-145.6,148.6-290.8,222.9-435.9c0.4,0.1,0.7,0.2,1.1,0.3
	C621.5,251.1,621.5,434.4,621.5,619.2z"/>
<path d="M498.1,367.8c34.1,0,66.2,0,98.9,0c1-64.3,2.1-128,3.1-191.7c-0.6-0.2-1.1-0.4-1.7-0.6C565.2,239.2,532.1,302.8,498.1,367.8
	z M584.8,354.4c-22,0-42.6,0-64.8,0c21.9-42,43.1-82.7,64.8-124.4C584.8,272.4,584.8,313.3,584.8,354.4z"/>
</svg>
