<svg class="logo-icon" width="393" height="393" viewBox="0 0 393 393" fill="none" xmlns="http://www.w3.org/2000/svg">
    <path class="logo-base" fill-rule="evenodd" clip-rule="evenodd" d="M0.292236 392.136V0.36293H393V392.136H0.292236Z" fill="#131313"/>
    <path class="logo-r-tri" fill-rule="evenodd" clip-rule="evenodd" d="M71.7773 384.963H247.66C247.66 384.7 247.726 384.502 247.857 384.239C189.34 355.085 130.822 325.864 71.7773 296.381V384.963Z" fill="#FDFDFD"/>
    <path class="logo-r-penta" fill-rule="evenodd" clip-rule="evenodd" d="M72.4684 92.9591C72.3862 101.597 72.3039 110.235 72.2381 118.889C72.1722 127 72.1105 135.111 72.0488 143.222C71.8637 167.555 71.6785 191.889 71.3823 216.223C71.3165 220.106 72.5672 222.015 75.99 223.726C92.1828 231.886 108.317 240.164 124.451 248.441C132.518 252.58 140.586 256.719 148.66 260.843C157.744 265.45 166.762 270.057 176.24 274.927C197.529 233.542 218.752 192.357 240.011 151.101C255.364 121.305 270.737 91.4728 286.167 61.5014H72.6988V67.0295C72.633 75.6837 72.5507 84.3214 72.4684 92.9591Z" fill="#FDFDFD"/>
    <path class="logo-a-tri-frame" fill-rule="evenodd" clip-rule="evenodd" d="M385.035 21.4225C336.128 116.914 287.286 212.472 238.313 308.293L312.003 346.398L385.693 384.502C385.693 262.883 385.693 142.252 385.759 21.6199C385.627 21.587 385.512 21.5541 385.397 21.5212C385.282 21.4883 385.167 21.4554 385.035 21.4225Z" fill="#FDFDFD"/>
    <path class="logo-a-penta-out" d="M367.855 370.945C367.855 372.656 368.382 375.289 369.566 376.013L367.855 382L253.5 324L256.744 317.836C257.402 316.651 257.928 315.795 258.389 314.94C269.908 292.169 281.559 269.464 292.815 246.562C294.987 242.153 297.291 240.376 302.426 240.442C322.239 240.771 342.052 240.573 361.865 240.573H367.789V246.365V295.328C367.789 320.534 367.723 345.739 367.855 370.945Z" fill="#131313"/>
    <path class="logo-a-penta-in" d="M358.837 370.945C327.439 354.953 295.796 337.926 264.595 322C273.087 305.152 282.086 287.168 290.38 270.715C293.539 264.397 296.633 258.013 300.056 251.827C300.846 250.445 302.821 248.931 304.335 248.931C322.305 248.734 340.275 248.8 358.837 248.8C358.837 288.681 358.837 330.669 358.837 370.945Z" fill="#FDFDFD"/>
    <path class="logo-a-tri-out" d="M305 222.555C327.446 222.555 348.576 222.555 370.1 222.555C370.758 180.238 371.483 138.317 372.141 96.3949C371.746 96.2632 371.417 96.1316 371.022 96C349.168 137.922 327.38 179.777 305 222.555Z" fill="#131313"/>
    <path class="logo-a-tri-in" d="M362.07 213.736C347.588 213.736 334.029 213.736 319.416 213.736C333.831 186.095 347.786 159.31 362.07 131.867C362.07 159.771 362.07 186.688 362.07 213.736Z" fill="#FDFDFD"/>
</svg>

