<svg width="21" height="20" viewBox="0 0 21 20" fill="none" xmlns="http://www.w3.org/2000/svg">
<path d="M9.66649 15.2667L7.61649 17.3001C6.99266 17.9158 6.15138 18.2611 5.27483 18.2611C4.39827 18.2611 3.55699 17.9158 2.93316 17.3001C2.62904 16.9966 2.38775 16.6362 2.22313 16.2394C2.0585 15.8426 1.97376 15.4172 1.97376 14.9876C1.97376 14.558 2.0585 14.1326 2.22313 13.7358C2.38775 13.3389 2.62904 12.9785 2.93316 12.6751L6.84149 8.80006C7.46532 8.18428 8.3066 7.83901 9.18316 7.83901C10.0597 7.83901 10.901 8.18428 11.5248 8.80006C11.9218 9.19448 12.2091 9.68566 12.3582 10.2251C12.4402 10.1574 12.5155 10.0821 12.5832 10.0001L13.6582 8.93339C13.4175 8.43238 13.0934 7.97589 12.6998 7.58339C11.7637 6.6572 10.5 6.1377 9.18316 6.1377C7.8663 6.1377 6.6026 6.6572 5.66649 7.58339L1.74983 11.4917C1.28849 11.9495 0.922334 12.4941 0.672462 13.0941C0.42259 13.6941 0.293945 14.3376 0.293945 14.9876C0.293945 15.6375 0.42259 16.281 0.672462 16.881C0.922334 17.481 1.28849 18.0256 1.74983 18.4834C2.68593 19.4096 3.94963 19.9291 5.26649 19.9291C6.58336 19.9291 7.84706 19.4096 8.78316 18.4834L11.8248 15.4667H11.4082C10.8213 15.477 10.2357 15.4098 9.66649 15.2667V15.2667Z" fill="black"/>
<path d="M18.8415 1.5165C17.9054 0.590306 16.6417 0.0708008 15.3248 0.0708008C14.0079 0.0708008 12.7442 0.590306 11.8081 1.5165L8.76647 4.53317H9.1748C9.7659 4.53302 10.3544 4.61148 10.9248 4.7665L12.9748 2.73317C13.5986 2.11739 14.4399 1.77211 15.3165 1.77211C16.193 1.77211 17.0343 2.11739 17.6581 2.73317C17.9623 3.0366 18.2035 3.39704 18.3682 3.79386C18.5328 4.19067 18.6175 4.61606 18.6175 5.04567C18.6175 5.47527 18.5328 5.90066 18.3682 6.29748C18.2035 6.69429 17.9623 7.05473 17.6581 7.35817L13.7498 11.2332C13.126 11.8489 12.2847 12.1942 11.4081 12.1942C10.5316 12.1942 9.6903 11.8489 9.06647 11.2332C8.66946 10.8387 8.38223 10.3476 8.23314 9.80817C8.14972 9.86486 8.07162 9.92901 7.9998 9.99983L6.9248 11.0665C7.16551 11.5675 7.48956 12.024 7.88314 12.4165C8.81924 13.3427 10.0829 13.8622 11.3998 13.8622C12.7167 13.8622 13.9804 13.3427 14.9165 12.4165L18.8248 8.5415C19.2851 8.08313 19.6504 7.53835 19.8997 6.93844C20.1489 6.33852 20.2772 5.69529 20.2772 5.04567C20.2772 4.39604 20.1489 3.75281 19.8997 3.1529C19.6504 2.55299 19.2851 2.00821 18.8248 1.54983L18.8415 1.5165Z" fill="black"/>
</svg>
